# xmcd
#
# Track frame offsets:
#	150
#	23125
#	31872
#	55327
#	69109
#	87130
#	101005
#	125577
#	143270
#	154931
#	172197
#	192978
#	217832
#	240541
#	263337
#
# Disc length: 3597 seconds
#
# Revision: 0
# Processed by: cddbd v1.5.1PL0 Copyright (c) Steve Scherf et al.
# Submitted via: dBpowerAMP V4.0
#
DISCID=bd0e0b0f
DTITLE=聖經-舊約 - Disc 56
DYEAR=1900
DGENRE=
TTITLE0=以西結書第1章
TTITLE1=以西結書第2章
TTITLE2=以西結書第3章
TTITLE3=以西結書第4章
TTITLE4=以西結書第5章
TTITLE5=以西結書第6章
TTITLE6=以西結書第7章
TTITLE7=以西結書第8章
TTITLE8=以西結書第9章
TTITLE9=以西結書第10章
TTITLE10=以西結書第11章
TTITLE11=以西結書第12章
TTITLE12=no
TTITLE13=no
TTITLE14=no
EXTD=
EXTT0=
EXTT1=
EXTT2=
EXTT3=
EXTT4=
EXTT5=
EXTT6=
EXTT7=
EXTT8=
EXTT9=
EXTT10=
EXTT11=
EXTT12=
EXTT13=
EXTT14=
PLAYORDER=
